<svg xmlns="http://www.w3.org/2000/svg" xmlns:xlink="http://www.w3.org/1999/xlink" version="1.1" width="256" height="256" viewBox="0 0 256 256" xml:space="preserve">
<g style="stroke: none; stroke-width: 0; stroke-dasharray: none; stroke-linecap: butt; stroke-linejoin: miter; stroke-miterlimit: 10; fill: none; fill-rule: nonzero; opacity: 1;" transform="translate(1.4065934065934016 1.4065934065934016) scale(2.81 2.81)">
	<path d="M 47.257 63.334 c -0.729 0.273 -1.482 0.42 -2.238 0.454 c -0.007 0 -0.013 -0.002 -0.019 -0.002 c -0.009 0 -0.017 0.003 -0.026 0.003 c -1.115 0.043 -2.234 -0.168 -3.28 -0.643 c -1.768 -0.804 -3.118 -2.249 -3.8 -4.067 c -0.387 -1.034 -1.54 -1.557 -2.575 -1.171 c -1.034 0.388 -1.558 1.541 -1.17 2.575 c 1.057 2.819 3.148 5.059 5.89 6.305 c 0.956 0.434 1.952 0.714 2.961 0.87 v 6.009 c 0 1.104 0.895 2 2 2 s 2 -0.895 2 -2 v -6.114 c 0.56 -0.118 1.116 -0.269 1.661 -0.473 c 5.82 -2.183 8.779 -8.692 6.598 -14.513 c -1.244 -3.319 -3.907 -5.804 -7.313 -6.826 l -4.573 -1.675 c -0.041 -0.015 -0.083 -0.029 -0.125 -0.041 c -2.218 -0.651 -3.953 -2.259 -4.76 -4.411 c -1.408 -3.755 0.501 -7.955 4.256 -9.363 c 0.741 -0.278 1.499 -0.422 2.25 -0.453 c 0.003 0 0.005 0.001 0.008 0.001 c 0.003 0 0.006 -0.001 0.009 -0.001 c 3.047 -0.118 5.969 1.701 7.097 4.709 c 0.389 1.034 1.541 1.56 2.575 1.17 c 1.034 -0.388 1.559 -1.541 1.171 -2.575 c -1.481 -3.948 -4.954 -6.573 -8.851 -7.176 v -6.008 c 0 -1.104 -0.895 -2 -2 -2 s -2 0.895 -2 2 v 6.12 c -0.557 0.116 -1.113 0.262 -1.662 0.468 c -5.82 2.182 -8.779 8.692 -6.597 14.513 c 1.245 3.32 3.908 5.804 7.313 6.826 l 4.574 1.675 c 0.04 0.015 0.082 0.028 0.124 0.041 c 2.219 0.652 3.954 2.26 4.76 4.412 c 0.683 1.818 0.615 3.794 -0.188 5.562 S 49.075 62.653 47.257 63.334 z" style="stroke: none; stroke-width: 1; stroke-dasharray: none; stroke-linecap: butt; stroke-linejoin: miter; stroke-miterlimit: 10; fill: rgb(31,10,77); fill-rule: nonzero; opacity: 1;" transform=" matrix(1 0 0 1 0 0) " stroke-linecap="round"/>
	<path d="M 45 3.586 c -7.885 0 -15.414 2.075 -22.059 6.041 l 1.815 -7.133 c 0.272 -1.07 -0.375 -2.159 -1.445 -2.432 c -1.072 -0.274 -2.159 0.375 -2.432 1.445 l -3.121 12.266 c -0.01 0.04 -0.011 0.081 -0.018 0.122 c -0.012 0.066 -0.024 0.131 -0.03 0.198 c -0.005 0.062 -0.006 0.124 -0.005 0.187 c 0 0.067 0.002 0.134 0.009 0.201 c 0.007 0.061 0.018 0.121 0.03 0.182 c 0.013 0.067 0.028 0.132 0.049 0.198 c 0.019 0.06 0.042 0.118 0.067 0.177 c 0.026 0.061 0.052 0.122 0.085 0.181 c 0.012 0.023 0.02 0.048 0.033 0.071 c 0.023 0.038 0.053 0.07 0.078 0.106 c 0.023 0.033 0.039 0.069 0.064 0.101 c 0.014 0.019 0.033 0.032 0.048 0.05 c 0.045 0.054 0.095 0.104 0.146 0.153 c 0.046 0.045 0.091 0.089 0.141 0.128 c 0.05 0.04 0.103 0.074 0.156 0.109 c 0.057 0.037 0.113 0.074 0.173 0.104 c 0.054 0.028 0.111 0.05 0.168 0.073 c 0.063 0.026 0.126 0.051 0.192 0.07 c 0.021 0.006 0.04 0.017 0.062 0.022 l 12.266 3.12 c 0.166 0.042 0.332 0.062 0.495 0.062 c 0.893 0 1.707 -0.603 1.937 -1.507 c 0.272 -1.071 -0.375 -2.159 -1.445 -2.432 l -8.02 -2.04 C 30.598 9.592 37.626 7.586 45 7.586 c 21.619 0 39.207 17.588 39.207 39.207 C 84.207 68.411 66.619 86 45 86 S 5.793 68.411 5.793 46.793 c 0 -5.629 1.167 -11.062 3.469 -16.148 c 0.455 -1.006 0.009 -2.191 -0.998 -2.647 s -2.191 -0.009 -2.647 0.998 C 3.08 34.602 1.793 40.591 1.793 46.793 C 1.793 70.617 21.175 90 45 90 c 23.825 0 43.207 -19.383 43.207 -43.207 C 88.207 22.969 68.825 3.586 45 3.586 z" style="stroke: none; stroke-width: 1; stroke-dasharray: none; stroke-linecap: butt; stroke-linejoin: miter; stroke-miterlimit: 10; fill: rgb(31,10,77); fill-rule: nonzero; opacity: 1;" transform=" matrix(1 0 0 1 0 0) " stroke-linecap="round"/>
</g>
</svg>